<svg class="icon" viewBox="0 0 1024 1024" version="1.1" xmlns="http://www.w3.org/2000/svg" width="18" height="18">
  <path
    d="M988.908308 614.006154c-58.525538-29.538462-76.091077-53.208615-76.091077-100.509539 0-44.386462 17.565538-68.017231 76.091077-100.548923 32.177231-20.716308 35.091692-38.439385 35.091692-68.01723v-168.566154C1024 123.116308 980.125538 78.769231 927.468308 78.769231H96.492308C43.874462 78.769231 0 123.116308 0 176.364308v168.566154c0 26.584615 2.914462 50.254769 35.091692 68.01723 23.433846 11.815385 76.091077 41.353846 76.091077 100.548923 0 65.024-38.045538 85.740308-73.137231 97.555693H35.052308C2.914462 631.768615 0 664.300308 0 679.069538v168.566154C0 900.883692 43.874462 945.230769 96.531692 945.230769H927.507692C980.125538 945.230769 1024 900.883692 1024 847.635692v-168.566154c0-32.531692-11.697231-44.347077-35.091692-65.063384z"
    fill="#7FBCFF"
  ></path>
  <path
    d="M670.444308 530.116923c17.723077 0 32.571077 14.572308 32.571077 32.019692a32.571077 32.571077 0 0 1-32.571077 31.980308h-124.376616v122.171077a32.571077 32.571077 0 0 1-65.142154 0v-122.171077H356.548923a32.571077 32.571077 0 0 1-32.571077-31.980308c0-17.447385 14.808615-32.019692 32.571077-32.019692h124.376615v-75.618461H347.648A32.571077 32.571077 0 0 1 315.076923 422.478769c0-17.447385 14.808615-31.980308 32.571077-31.980307h97.713231L341.740308 288.689231a31.232 31.232 0 0 1 0-43.638154 32.610462 32.610462 0 0 1 44.425846 0l127.330461 125.085538 127.330462-125.085538a32.610462 32.610462 0 0 1 44.386461 0c11.854769 11.618462 11.854769 31.980308 0 43.638154l-103.620923 101.809231h94.759385c17.762462 0 32.571077 14.572308 32.571077 31.980307a32.571077 32.571077 0 0 1-32.571077 32.019693h-133.277538v75.618461h127.369846z"
    fill="#007AFF"
  ></path>
</svg>