<svg class="icon" viewBox="0 0 1024 1024" xmlns="http://www.w3.org/2000/svg" width="28" height="28">
  <path d="M847.872 734.208L784.384 368.64H239.616l-63.488 365.568c-9.216 51.2 30.72 105.472 81.92 105.472h506.88c52.224 0 92.16-54.272 82.944-105.472zM512 648.192c-71.68 0-130.048-58.368-130.048-130.048 0-6.144 4.096-10.24 10.24-10.24s10.24 4.096 10.24 10.24c0 60.416 49.152 109.568 109.568 109.568s109.568-49.152 109.568-109.568c0-6.144 4.096-10.24 10.24-10.24s10.24 4.096 10.24 10.24c0 71.68-58.368 130.048-130.048 130.048z" fill="#2F8AF5"></path>
  <path d="M791.552 358.4l-19.456-96.256c-7.168-39.936-46.08-67.584-87.04-67.584H340.992c-40.96 0-74.752 28.672-81.92 68.608L243.712 358.4h547.84z" fill="#83C1FF"></path>
</svg>